<?xml version="1.0" standalone="no"?><!DOCTYPE svg PUBLIC "-//W3C//DTD SVG 1.1//EN" "http://www.w3.org/Graphics/SVG/1.1/DTD/svg11.dtd"><svg t="1734425455327" class="icon" viewBox="0 0 1024 1024" version="1.1" xmlns="http://www.w3.org/2000/svg" p-id="7554" xmlns:xlink="http://www.w3.org/1999/xlink" width="200" height="200"><path d="M0 0h1024v1024H0z" fill="#333333" opacity=".01" p-id="7555"></path><path d="M592.896 107.179a170.667 170.667 0 0 0-161.792 0L52.087 311.296a34.133 34.133 0 0 0 0 60.075l84.446 45.5v262.997a170.667 170.667 0 0 0 85.334 147.797l204.8 118.238a170.667 170.667 0 0 0 170.666 0l204.8-118.204a170.667 170.667 0 0 0 85.334-147.797V416.87l34.133-18.397v250.06a34.133 34.133 0 1 0 68.267 0v-307.2a34.133 34.133 0 0 0-17.954-30.037L592.896 107.179zM819.2 453.632v226.236A102.4 102.4 0 0 1 768 768.58L563.2 886.784a102.4 102.4 0 0 1-102.4 0L256 768.58a102.4 102.4 0 0 1-51.2-88.712V453.632l226.304 121.856a170.667 170.667 0 0 0 161.792 0L819.2 453.632z m-355.738-286.31a102.4 102.4 0 0 1 97.076 0l323.208 174.011-323.208 174.012a102.4 102.4 0 0 1-97.076 0L140.254 341.333l323.208-174.011z" fill="#333333" p-id="7556"></path></svg>