<?xml version="1.0" standalone="no"?><!DOCTYPE svg PUBLIC "-//W3C//DTD SVG 1.1//EN" "http://www.w3.org/Graphics/SVG/1.1/DTD/svg11.dtd"><svg t="1734425524216" class="icon" viewBox="0 0 1024 1024" version="1.1" xmlns="http://www.w3.org/2000/svg" p-id="11963" xmlns:xlink="http://www.w3.org/1999/xlink" width="200" height="200"><path d="M850.944 637.44H834.56V529.408c0-8.704-4.096-16.896-11.264-22.528-7.168-5.12-15.872-7.168-25.088-5.632-99.328-0.512-195.072 25.088-284.672 76.8-90.112-51.2-185.856-76.8-285.184-76.288-9.216-1.536-18.432 0.512-25.088 5.632C196.096 513.024 192 521.216 192 529.92v108.032c-1.024 0-1.536-0.512-2.56-0.512h-14.336c-9.216 0-16.896 7.68-16.896 16.896v63.488c0 9.216 7.68 16.896 16.896 16.896h14.336c1.024 0 1.536 0 2.56-0.512V837.12c0 14.848 11.776 29.184 28.16 33.792 1.536 0.512 3.584 0.512 5.12 1.024 86.528 2.56 176.128 27.136 267.264 72.704 5.632 4.608 12.8 6.656 20.48 6.656h1.024c7.168 0 14.336-2.048 19.456-6.656 91.136-45.568 181.248-70.144 267.264-72.704 2.048 0 3.584-0.512 5.12-1.024 16.384-4.608 28.16-18.944 28.16-33.792V734.208h16.384c9.216 0 16.896-7.68 16.896-16.896v-63.488c0.512-8.704-7.168-16.384-16.384-16.384z m-360.448 256c-86.016-39.936-171.008-61.952-253.44-66.048V547.328c88.064 1.024 173.568 24.576 253.44 70.656V893.44z m298.496-66.56c-81.408 4.096-165.376 25.6-249.856 64.512V615.424c78.848-45.056 162.816-68.096 249.856-69.12V826.88z" p-id="11964"></path><path d="M387.584 445.952l-30.72 16.384c-10.752 6.144-14.848 19.968-8.704 30.72s19.968 14.848 30.72 8.704l53.248-28.672c25.088 11.264 53.248 17.408 82.944 17.408 26.624 0 52.224-5.12 75.776-14.848l52.224 30.208c3.584 2.048 7.168 2.56 10.752 2.56 7.68 0 15.36-4.096 19.456-11.776 6.144-10.752 2.048-24.576-8.704-30.72l-27.648-16.384c50.176-37.376 82.944-97.28 82.944-164.864 0-113.152-92.16-204.8-204.8-204.8-113.152 0-204.8 92.16-204.8 204.8-0.512 65.536 30.208 123.904 77.312 161.28z m125.952-305.664a145.71 145.71 0 0 1 105.984 45.568c24.576 26.112 39.936 60.928 39.936 99.84 0 19.968-4.096 39.424-11.776 56.832-22.016 52.224-73.728 89.088-134.144 89.088-80.384 0-145.408-65.024-145.408-145.408s65.024-145.92 145.408-145.92z" p-id="11965"></path></svg>